<mxfile host="app.diagrams.net" modified="2024-05-29T20:42:44.906Z" agent="Mozilla/5.0 (Windows NT 10.0; Win64; x64) AppleWebKit/537.36 (KHTML, like Gecko) Chrome/125.0.0.0 Safari/537.36" etag="g3rRYGrIwop6LLoWfJvM" version="24.4.10" type="device">
  <diagram name="Page-1" id="jtWnV_r2mcVwSthhWhfU">
    <mxGraphModel dx="1501" dy="648" grid="1" gridSize="8" guides="1" tooltips="1" connect="1" arrows="1" fold="1" page="0" pageScale="1" pageWidth="827" pageHeight="1169" math="0" shadow="0">
      <root>
        <mxCell id="0" />
        <mxCell id="1" parent="0" />
        <mxCell id="YdOP761zWaQ_xF7lf3X8-2" value="" style="shape=image;imageAspect=0;aspect=fixed;verticalLabelPosition=bottom;verticalAlign=top;image=https://download.logo.wine/logo/Reddit/Reddit-Logo.wine.png;imageBorder=default;" vertex="1" parent="1">
          <mxGeometry x="10" y="220" width="119.88" height="80" as="geometry" />
        </mxCell>
        <mxCell id="YdOP761zWaQ_xF7lf3X8-5" value="" style="rounded=0;whiteSpace=wrap;html=1;" vertex="1" parent="1">
          <mxGeometry x="232" y="136" width="288" height="384" as="geometry" />
        </mxCell>
        <mxCell id="YdOP761zWaQ_xF7lf3X8-11" value="" style="rounded=0;whiteSpace=wrap;html=1;" vertex="1" parent="1">
          <mxGeometry x="264" y="216" width="224" height="256" as="geometry" />
        </mxCell>
        <mxCell id="YdOP761zWaQ_xF7lf3X8-7" value="" style="shape=image;imageAspect=0;aspect=fixed;verticalLabelPosition=bottom;verticalAlign=top;image=https://datawookie.dev/img/headers/banner-airflow.png;imageBorder=default;dashed=1;dashPattern=1 1;" vertex="1" parent="1">
          <mxGeometry x="269.34" y="226" width="213.33" height="80" as="geometry" />
        </mxCell>
        <mxCell id="YdOP761zWaQ_xF7lf3X8-8" value="" style="shape=image;imageAspect=0;aspect=fixed;verticalLabelPosition=bottom;verticalAlign=top;image=https://airflow.apache.org/docs/docker-stack/_images/docker-logo.png;" vertex="1" parent="1">
          <mxGeometry x="432" y="144" width="74.79" height="64" as="geometry" />
        </mxCell>
        <mxCell id="YdOP761zWaQ_xF7lf3X8-4" value="" style="endArrow=classic;html=1;rounded=0;" edge="1" parent="1" source="YdOP761zWaQ_xF7lf3X8-2">
          <mxGeometry width="50" height="50" relative="1" as="geometry">
            <mxPoint x="400" y="314" as="sourcePoint" />
            <mxPoint x="264" y="260" as="targetPoint" />
          </mxGeometry>
        </mxCell>
        <mxCell id="YdOP761zWaQ_xF7lf3X8-16" value="" style="shape=image;imageAspect=0;aspect=fixed;verticalLabelPosition=bottom;verticalAlign=top;image=data:image/png,iVBORw0KGgoAAAANSUhEUgAAAMgAAAC4CAMAAACRpFNtAAAAvVBMVEX///8xYZIAAAAoWo0vX5EmWIwEBAQpW44wYJH5+fn8/PyampqyxNYPDw/u7u4LCwvIyMh0dHQWFhbz8/Pg4ODY2NgcHBxVVVXR2+bAwMDp6enPz896eno+Pj4YGBiIiIhLS0tnZ2coKCiSkpJbgaioqKg3NzdLdaB5mLiysrJQUFAmJiZsjrHF0uDq7/S5ublhYWE9apiLpsGlus9Te6S9zNyrv9Pf5+4xMTGHo791lbYaT4XO2eWXr8gQSIDd/zsUAAAZRklEQVR4nO1dCZeazNJW2UFABdwdddzXEZdRJ+P3/3/W7apuFGQzEZN5z/nq3pM3UYR+umuv6iaX+ydkNe1Ruzsob3rjznzT17rdhmH8m6Hkcqqipl5iOE5TscifxvVatem0yydRLNyRWG23S83XDjlIRssZ1PrlTW1e25T7te6H3YqazGZJq9XevfG+18r9hm0ozmCu30PwUaU2sv8KCLU1qJ3Czz/V5rOGH40xqi0ixnnqJYDwsGwaqSv9LDW7nRBH3Oi9M2hQ1nDaUSh8JBbMca+26Q60kaZpg3Jt3nkr3G7dey0Uu1vxj8WjwAirPc1u9k3fVaZeXZwWuml6V4pmr6+VbCt4c6XZ0vod07tbr/UyGEbXG55ovvXK7cHso1FqNGaDdrnfqZg3PBUPrnnqd2etZrNpGEazaTdG7X5Hf++P7NjpVmztKkGbF8mKU2Uoqn2tZd0NRTFao+68elsIgqI3aCmhu6iGFfrs/kHtd7a4WmaD91GbDtKszeJHYpUG8ypbmXEp5YbKsb4qXi7n6XS73RW/j77bWhqD0s3esnTpamxSObc56xONWx3cxqWuj4TWQfzr897lJY7jBELkTz6/X14OR+9ri0nje+r6/SYN6Cw3roM7rj4v0+WQ0JTM5+roZyJr1vXY+1jcLoeTietOJpPhclv8Xl+R7CZk9D6SCCJ3+eld4MwpkmwFpY03LbOFVlbnoYsTybEpldzJcFus34nEegeXcRIvk//xPIyUnyx33rSvL66QDxLPCe65zr4foNS/Zam9Gohj4D1/LwmSHByBLHECl59MP49XLXA8uwLH3400T67LX6f9uOTk+wtkIT9lUEpoiypOZjia+g2HQjhCun+4NwaeMMf+k13nCqFBsss4YbKly6Lu3PDNCJQtRWp3EElm7lcfxLyLfz0uhdAkB4hzv9l1MTCQeMG90LHW9/fshV/vV/itgYJyykh3teBmNWSZVcQEBofg1ul1EcO7G+vkE2+5XkbdUnJ3FAm6Zp2wPfoDUuFeb6g8Dmk4ZL740HUIhVsifynbsKAA0Clq3ubYJ57PESyIiHeqp46P28J1KzeZ/TwS3AM+4RKFJC8sEYkDEm9mwVw14FK453rPpeEYwnXHyQPrgcTnKQNdIgWKIfkws1kSGxYEnZ5zGt/nZRBRa5iG1/cDborsf4n8ifCFX25gJp+XErDpVVCA3/kkPYQPnsIPtql4g4PFad9GIznDdx/AW0+rYAVUeR/+9pU20VRjrfKPCYhHHCJRvyLhc2CUmiAlo2eBGMBZH+Qv9fQFgflTlo8zFvsZMtA6kiGlPaAEtTl7FsgMOAt0RirHyLggxUcF3YcEGajuRk4UmFfwvLvPAoGb1Mh/rX0ax3BLcpky/H0geeECT9pF/ZKDrz7YGJ4hq8NmY5U6QBmMwiGN/yJ/mUczOo1Yc9QfJRKr9Z5MRjTJPUSIQi5pnCXtgdWjZTaNJBds/HESXnRpSQDY1ee9FJB1E9yTVBkWwKjHMHoqCUsY52d41fkh+aJJAt/3J4E0mPO5jpitu0euHlm3OOLQxIdniwe1ZZxIcPokEAgNe+S/RzcNB3CW+ieiTn+OzBW2ufyEePvW6Xlh1yC/lHtA1lGHptua+N9/weNC8o6GBICUnwQyIkDa5L+faSIigeLZ/SlnEeJB6YVkTPJk5Fk7MmCeZxrz83lgjVQvJoE4lPf7JblqrWcte5u5vml2XdqTB1qpGiGJMCb7DsEjHzqV530tAAL3SHPh0XCl+8dJxMHk3ysuFD1iEMVnV6TL/LUoqxt4ILgSxSdEJM8U+J0wei6K+Kwb/ygQCUT19yKRG8mQuhOEX6C41sEwGXUIUZ36s+USD0gKa8l58HwpW/CQe5Qk8udDRoUXOHe4PG8vl+kUMkRBJ4cH77ecQR5l8JiMyC4Zg7KXMOc5nO5W3/VV8TyU06Fw+a/D0T/dARXOw31z8wy8+NFjQNAlWk8Iiq/ibVjKKi2dx0vL+t0TA4KGZsQaFwpPV0q6LBWUYkdQ3dfzk8sx+PPonNWVZP4S4v1P/5M4UIaOXiikFVtSqfGYZedATuuXiGJG4gxIGFHl1PV3cbfbFbE8ElgRVIZkDOLTeS3D87WSgdD8CaP16jJdLr8uyDRqgv9PLYd6WOaFX78ETvoFkUBgRWQW6faezgYp5kPeLw27EUVx6UpkXISEM0hqQoiCMaUyFdzp7vNCQmmcf7+wo+8LGcLn83NK76F4BKMqwHuZcEQq+P3lczfd/8J1ijVBKMm56S/UumSqZAmSP35eFMBBMYjL2IgZ3m8QSDtEiMmRBk0fWBcXtZSEE5lTLjKYs0PcFNCYkiZKiGzwPJr2KXd32xaJtjNI/WosZk827ehJHIdMRWFYBzQc5sBWx/CWADAvgrQE2KsJ77eqlBCZJmYgIkT3Mf2bHGqgjOx+BXBBNgHsWWzYyMEwiSHnJtvdlHgmKBGKj4elPUDcUL35LBksY5ocIiKQm+LkoXamfg85nNI4YyoBT8EC8AIWG1Fmjj5fC62IsSgUsqgiglmFnNIxMT+C6vfgGzA3WYKDIkBOYRejgHFFlrcfsVDAd1cQ/oZIM51PE/HY3gzqSCUAAYO48ks1z8H1uFKrOBkB7etbrrtlZQmJ9vOJB0og7VDqTgxjEch9dAeTDtJ+jIm37peLuzMjGB2qnULhIxMgNgt2E6Wdo75WSNHSbE6MDeJwuXxAAJjPjCDQlplN3Y0AqdBczCrJIkoxQGTgjji1JQ3VgHBjEHVjNcpZg6w4Cz2ETvCJMUC+I0o86CzFJISpA3KzGxhl3uwhclauk4lZR2qz3oMk244PjZARKtBxxhRTWTeW5YPCjzqrpWfFWVieNkHckiLyeCDoPsXoCZqdvK50kLVkj7M2GeHIOSKNNIsJaiseCGqimF9SV+bKW1zAZ0Sroo4zKLp5BAoQ5C1JSOLUbzIQlgDyWDaofpHRSmbhLbvWMyIkC3I3NcEk4vRF6TVshYgNL/Fn1wghYBBp3aifQdrhRiUiJCkOMI4oKj+HQGJXBJMvV+GjLgoznriUkL3OrlsrZ+s0i5EQtwuhINX7IpG1qM3zxJ0aI+rTUSMyEp8u8PhJPaUKyb1RDo40PgHBgkT6PdaKGKPRJEAvQ1EHGtBuz4R6FDUBEROPwVOC4pZoCh5XgWb5aEcOdrUQUdcz7ZdtMSGJHRDPY2wXJSMYvSYIF5pvavplrLHgbNH8SraiTsh6o3mM2K4GWY5xqaivlVQRxkwKXRI5f/VncKGgvpNxV3nNywnFCImMTm5EbwQ/sVLqP3RJ6JpdnS0qOoPn2wTuaUQsSVKxHd2/qIwRBqvJJVL5VjvkPR8F80JQAn06U3pHtkijmziniQKJWBF0tZLTrVQc0MXygNCeIE1ErztTAgUMGYh6zGB4r6oQ+hzEN6VIhMNHrsW/katRmSvj7Bz4GxF2HVvxvT+8HK21UADSSqR0/omt4WUqIzQLRIzhs20bEQTZLeDXOAUs0Vzb/cccZhpTew1gAQhjegk6lBDo3Hu6ay5MSpU1O8UlRMBFCTmNNARMKz+yy3Yc6j5lL6DKIgtSzXrLBVCbqsIogcapB4kN6V90tJITYrfrrCEy4tFFZwDSaS9YEOoBgx8akzWkbYB3jEdFPU7ThS4s/gI8h1+4IERlZb4HBsmoUOMel0thkx/4Fh0/KzGx510JnGkN6zhTIPFgQzJ1F2/Up7wV19p4VT1+Aj/roWZNuiR19AKwS2jwfINWHHm8Fae3UPUofg2Maav0zjskjhWKcgeEZC9eYUMoWazVKI63+AltS7yNG6FFxfERRFMmhIZYwysXsjfqV2rTm8f2w3Kse5cLjO3Rrg5WTS2iLSRxSOZe1o2ITTTh7rFxK9qx3HHIegRQmaa3Ql7XBDtmt/jn/PmGuQSCFBPcPtYuyC5uJ1pv8wgFOSvVql+JsqYKDEVsYSC7aBlGpnymEV8e7h9fpaVIcvXzRBKE/AP+op9oxyyh5skLDBWjacwG7XdTT9/H+Rtkm7QtJT4tLyzZzK0Pl+kWHAFXSGzhCP6a1eqJpBcWtXK73Z8vbjuzs1RifRonxoq7tL/rRMkdt5elG96LGElcHqu7uY/ArnJxMR7jZtfnN5DcCHIQsMQxgZI0wZ4N+86QHc8PbSi5tgnZ5Q5u0668d3rlWclWFLsvZrskCmu/jfY6eLoBsbWYz+5SOMUH9o5x55s8K3aLkNO8fQLbvLLcEk5C9wqE7lEamM/jDjbnRDe8N/ynWURuqAjiGFIPMcYtmWWxE8ZHhklr9xEOlyyjFaG7BoG3O8DTarGIA0zrB+YxH6ceppPd/fkJCA02kGR6cgKx7tXoJZGx18HoeEJK9zyfBWGI/Rkpqoumf7aSwHP77WptKaqqWuvj9+eUboSFolmmKccmq/lY94qLqk5l7uHQsaIMGyWxcpK2HYg11mNDjsC7+yFslJ/kBY42DpX0zE29tyTF4MCELxTMvqc5q8jQRRKFk8GBNkoxjLTifi3xSBInSbwgDamBxb2hGVYXgAzWGRgcmYT8k+tSHOaYni/wTZUVJiCitxnebnDfqMUTz2BZpGqr9V7Ipq0mQF3CNsD+/m2sErpJEJ2KYmczcqjqYVfQ1MhjQPD4B2ga5t3lts607wzsYfaJIdijP4e/HHiPu5gBmYlmbXSzhke2sZf21kVVHPxAMN9w2E6/ll/T87ZYv54MYVB2fYFTr3k7d3c86zKjW9Zabz0fG1s7FpdwdLttMhCqfSNIGb0jt2bTjHJ3b2IpdJygHfZZcxSH/X7rcluvthPqK8psJ24KEFoYCVFTG4uZO4w3gu3tHVTqhz3hZ3qmgdURPxiIy5I48ZTtOGnL0KWsiLu+f4rljDbsZBzzJfmtHNs/hgNcH3YHnHFlQ48gOH7B8SGU5aSr+kwHgqXo2ajRsm3HKTVG3dr4enhP52WnbeF+6rlfjahEIumK1Ml64PkznLyfHug1UTuOgnTdf2RWq28V//lDhXHjRVkhIKiWFHq3iWrW4IMae+K6vip+Fld1z2nSAGHyhlHMPDTC53a9dV8JI8fOe6mw04GUETv/rBz1UKI+AUhUndQHBFT0DE67uh7ApZ/aXef1Z+uVqCPSH8y0NtEs5oI6vKFTyixtQXkuOU2HhZ1BoTCwPgZdQqOGYbx2Ka40YzNHY+qZ1WG++8A3i1YJj2/D9udkIGgPyy/L9iZSaXzjZPJ8Y8OOKRNP801XG426G+84wAdWBJuEatkGgQ+TNaKr8FZmp+d1TxHSWmPqLFFGqD3sMMX390lxGl3NviU3rNaov/GfwPg+sIj1FFM3zdFK1ZhuJvghpNrOrN8t9zflbrdl0dojbtFKYi2MD4kZMf+SgP8JPQQEs8QlsVB5SYkqG3KYr5wMBALdD1oA/6nktXEnBlbYyzhgx8j8UGqy3SfJQJgZyeTsqReRwY5KS97EBxHmvzIjD5LlAUnq2MKert6L6uoZkVKgibCkrQ7Y+AD9pD/IjISoyZKsSUCw+muTC3+wGcE9G6CMkrbsYy6ylHVSNGOCzZAA5JAEBKKRUTZ79F5GEBanHauCXXbtFyQTsyS1RvN5ca13KCOgfTdZd8ZmTWXqeST0OqH2VX649sVc8SJ5zzIPzQ7N7Ft8MyayInozcRcjPcKFBGU/2GXMYaoYK8HxsS52ekEn5k/WvphgFZOPI8H263KGW6leQ0aaj4IOCnhaP1tpoetBW5/jegghqoJzNl533n0mBN2icA5pXN8H3aEwEJ8/HOjV1PfavKJ5izacdbLfl5A5weFDUFpeRypgWn6ciT/dHOZoXQgPpy1GCAnt8AKHLNstSK8gkHbMCIWTdLywxzLqQPzxOgsIOnvwUKl1MG8qeQeVN3R2puUPJ2iIoUdqW2eeFhd5XuDkITvRvwUp+3+Rh/9dgi6vgklHuppOZF7i3f3Xznt9wQeUPH+8ykLCqlCFzfn6+L2q397Q0SybhSyOOPo7hG/8ELvh0TYHWIGe/2y/90ZqnxZoPwIMZDT6b4iw9h9ZD0JKn1XmNNogqNgtzStoLV7XO/4CUrsFrzLX6fU6napXC1oMfrwhvKPWtUnwRmat8V+RDh8ppXKgpeHUn/0HjGA0WY12dzMedzaD9ij9JVA/nFRF+e8oqf+n/zipyhpalmO+teBdXj/fFVuvLsPhfuJOhsvlIdQPeDx8LSeuC9/u6j4wx+Ih1HL3T0nZupLASxJxiCVJEvJTPxT1eynD2XQ8vsqL44bFq5b4lITPfzDcWLL2Ep//uhyO6/VxtTu7BEvx+uV6yXO8u919r9fr+udlLxEoXmdhUeaK0bf8J6QuOX7oW4P1VsgL3ljrE4nbf96MjVJfkoWh7yYi4b8QCaSl+ajdjniJ4UtoJfDDoFk8CDLrN63nZekcHId6kWWGMw7IoGDe3pdpVvRexg31MTSVhHvx/pKw3R8O24yQggMvC7h/KQ6Ipo9LjRa8DBNeh1mu6n8lMa5OePd+7escT89cl+hLI+5ox/ET+Ek8kI7/n85JfzyGVkp/6vopMt3+EviM9jLXBXkYOYIzhwAfBJJrmZWHM8rOH7fCKDwfAqISPUY+W/LSd+Rv1nnZtR4HonTMh9tCHPFPt9qorhxirZy1JgtyZAwWQRcO5P1RILm2+HCp+AkgRJ9GW4OiIBxiflTnpelvACmbD/PLnwOBJgI3koOIKYzzQNSJNLF+f0VUpzXTGiXf63xV22mMtI8Wk3Al1xLbKnsnuGI7M+0DG38VfO0ufGy0GiPa12zZdqNhO759kxNJzu+OISaig40hBPmwjPQw66y2NhUT6O26d7lRq4iiXjHFah8S7NZp/P723hm/w+WzHr16oam5/rgFW0pGOe0k6jqc3mANxqaok//3Pm77TFzwsZbnVfClqeTjaJ0FtJWEx4E4ug4msWzqtVnTsEd9nW3haJh622k6ttPamPBKUoWErpVTu9tu5NSuqc8122jONmZfmcNWmVZBa4mLcrs9UHNOR+zMHMextUXhlsdab13id/ACv1/ubu8lOOalZRwOYkq4epJBDOAYm1BhHZgdbyGcEy6R0tGvLcZdnb62wWYyMhBP3r4b+9SuVQCIWDv1aUHNeDc1Nnyj78/IKavtEF4TwXOSu7/QHQ71PO8/hT5IB4FbxQMxa4rFyGi0Fyacr+6YvnOPnQWU+JzKzVCqPSyoecJum/rNMFqVSrWE5sjbZVIWb/pcrYmB6pS6XhXPE5esC8dNLgoAkZKACN8JQKo3qpiVjYHP9j9Og4a+RsV3YG2XbmJlQNqiv7NyZlIgJltSW/e/l7Gph488UdfFz6ErobFPZK1PQUhircXpNEY6jTdaCabdqlb9ZVYDOKlZrYb8EQqEMJ3f0SQXImt5wx8FG0jbYqRXqh53sI1aVVx84U80JQu7GO46KOmB44KtMQh32VyMnOC71SkQu/oe+LQDMuJcb1sWAy7PLNZxWOXzhHOGEZvHPBpK+WMCkLD9G1UC4JQavG/C6BMNW53Xyo0Pb7kokFIlqPdqFAizlcq80un56BTf4bsTpDPMeuR2PkIWqubfAaJVAp+pGyzoq/ZHu30CQ7KoOT4grTsgcwTiVTiVXmXTLt+oXQblNx0uw/O+5mRXrQvsdR5hWgnSNsFFiQAyu1uR+e0NIFbT1gY9k8qLx1qLwC64cQCIuok4eUKdcEI4FFV4AkRxw5EKIxqM/Q4QuxKISZT3OzlX2mbtBkTt6Hbgx1U/EBKChosg6lLm7t9qg769q8L246i4ithKEh2rSUDCwq6eAm8Tt82amhv0faO1K3jaCxOEbqAfXDODQD5EfxldHaCZ3EWNdi3JxM9SSMQeJSXqkMeo/XeAkA/9rnwbrErbb1qMd9TPzLI3Td/74Jvm3YpYJ39Pr0Pfm1znIuKRAyfR04vlKL/xItCTln4LiPJu3rY8NUQw9g3TV34t6XhwVMukvx2JFeYNqo1Kf/4WAEKWpHZFYnToZmgyvfeJEsJvEp7iSmLa8Gkx6k5gMeVvAcmVTHNEZ6XZ1avAZ8Qr3njjabFdxq3KgvhYKuEXXe90W7ajdcy+cQ8k1xW9naR2x+Oz+i/iiwTmXblIPHV8lSXH51cB23RccnkWGxMgkZHXILoNr3EyFxttNJhXzTEV1mbPfKuNSqWZ1qvoXfqYsqh3xsBypfKCuOnkXyT86FEgPubUdLOjlUqjue79ENNY0uTzqoOt4lCSvAPDlIvAS8Nrilepn2U+L+/XDIh0rt/T9zrnaNGV1aZGHqtX3vojb96sWfudhBxkUF3vJ8qsW+vRf1iG4xh4vswcJMbQWoGbjXXyy3HbpzAOE+LDu/vp5bO42w7JP7jhzbQc9hz5crgtHj5hZ7nEyxOi0lYUiMz9uqf/i1Z0lFRLMZSg1FmKYpH/Ba4KeUadt4gkkaIYzbty1Ro8RYER5w4P/q+Vg/clB2eMfB2VMydLeGqXOwlTPi7O/y2y537129QfPkFOPR4Ol/NyOd0ewmWF3LpYPC+H+CUu1YHn4ZAhNZIygAF2ZuFbOO1l7VcHV4jOeGVGffMqw0QzL17WafmdCQMlkL3QNx9E0FUSYpqVf7TpNhNyNiTAXZzeq5VsD4z7+6Q2PwYjbdSdNf9V6fJ/+41eDAx7nqgAAAAASUVORK5CYII=;dashed=1;dashPattern=1 1;imageBorder=default;" vertex="1" parent="1">
          <mxGeometry x="327.74" y="367.2" width="96.52" height="88.8" as="geometry" />
        </mxCell>
        <mxCell id="YdOP761zWaQ_xF7lf3X8-17" style="edgeStyle=orthogonalEdgeStyle;rounded=0;orthogonalLoop=1;jettySize=auto;html=1;entryX=0.5;entryY=0;entryDx=0;entryDy=0;" edge="1" parent="1" source="YdOP761zWaQ_xF7lf3X8-7" target="YdOP761zWaQ_xF7lf3X8-16">
          <mxGeometry relative="1" as="geometry">
            <mxPoint x="376" y="352" as="targetPoint" />
            <Array as="points" />
          </mxGeometry>
        </mxCell>
        <mxCell id="YdOP761zWaQ_xF7lf3X8-18" value="" style="shape=image;imageAspect=0;aspect=fixed;verticalLabelPosition=bottom;verticalAlign=top;image=data:image/png,iVBORw0KGgoAAAANSUhEUgAAAQMAAADCCAMAAAB6zFdcAAABiVBMVEX///////7///38/////f8AMHMAO35yhaLh6e///v38//3U1un8/v8ANnkANoAAK3YAL4AAOH4AMn4AP4EAKXkAN3WUrL//cABsjK6SorsAM3MANHvw+frr8/bx+P0AL3XH19y8z9wAQXX///f6wYWbucP7hQA5ip8pf5X5uZr2hTkAP3suWJCDrrUAPYbw9fz70LiTnr42YIr88+d+l7Dd4upge6AAH3eiwsdNjphOlZf34b722J9bj6O/1trxqF382rp2pqduoqx7n6Upg4zJ3t80jJD84LQ1ipf0rlbtwXrzxov+lzL/hQD5tWb6ypuWurrumjEMdIr25sX47s2w0Nmkuszo5O8AFGRvjrXywa/vlF95eZtWVYE5aJpBao/85NJUZYsjUX1LbJwAPHHO4+FgoaL/eSBXaoZcZIxegq98g5xbZ56sq8XxikXorLbji5P109niT27lABYKPmj3tIkWVHvuuLy1wc3haG7rJ0HmDS3kSVnOAADjACEAAGjvlp8/S388PXntW1pxAAAIdUlEQVR4nO2a+2PT1hWAr3QlRX4/JJnYsS3JgoQg11kd2YSypiRrWtqNlZHiwpqSYjJCIFsKoZsZj677y3euJMeSI6d51nQ53w+SfPW697uvI8mEIAiCIAiCIAiCIAiCIAiCIAiCIAiCIAiCIAiCIAiCIAiCIAiCIAiCIAiCIAiCIAiCIAiCIAiCIL99eH7cORg3lHLn3gGhC/K4szB26DVj3FkYO/QjY9xZGAcchaJz/V+ugzgdX3bGAkeu/37e3TIWFhY+LsCizH4lFxeTY83Yr8on0zcIBy1hcWlp6dry0vIfXAflTz+tjDtnvx6fTH/uOmB8tAILd34sf/bZ+XFAvwAHvC8BxgN/MCjfvHkuHPBUEATXAUc4Kw6DwLV9DgR6ZiMkXJmOe8zhOApAX7ju5ggSkh+0iC+Bzlwue4edmQO5XnfO6tqHZv7Lixcv/vFPt/4Mq4tfET4Wo3GWt0uMmRm2vG1EncgOG0yov8SoA2UxN3GMXJ8u89PTt25N+/wF2kU8zmKDxTuXgZkZtrxzO6oIR4ogeG7ONFoRO2RRGr8Da3X1+9Wvv7j11er166tfs4dGt3PIi8DdmzfvsrUcWY2tTucb4dD3Me/dux+R/F44IHFeEHg2JrLBgeM5y7KgJbiVXJ65fMC8UFCvmoe/jZlNTUYkvx8OYFpgDm7AJsdDM/jrlW9Z7TIJ1YMdpEpHcJDIpqIGv/fCAQ/NfM8BQGYvXOn3dL8djHifcICDiC6SyOZOx8EZTFFeq4dYWRDYKySeOej3fs8BH4se1H+xHYROS+TT7207uN1jS9YO/MoLOrh8pwKtYO27yKFvtINymZJKRQ7FPp6DynA8FOUgWWH1EjLIQthkMklopVI59Hx8aD64xJbz85YQcCD0M1NJChxZ256LOjPSAaVlp2tr9v22es8I7khkpQdPa5pWL1aDxRt2wNPOA1urtQ0SD6RyPDHXbdtuOqoaGFmL9bqXg/aD5kmCes8Bu8vAwaBAbu+b2Ao56JegkBPNoSTYkF+mFEVq5NNKxgielcgqUiqVTjdy9gqJ7SWHHXDcXF1t5FKapBYCpjieTmQaipRLp6V0wIEzpXo5aKa0YzrgWAl9B+xl8ve/Y3y7eeWGuxFjkQJruxMPq6FhrujRlpT73lZhsK9c02riujNp5yMcdCeddklSuuVBctgBT9ZzSuaR004pei+YUUdvpODspq4EHXyYy/gO7I3jOeDI3x4vL3/8eGn58Yrb4X68wNjc3PTWFouVek+ebG1vb21tfbh3HlWzeUZaUaBigHx9cNGCLpUWmYvJ9LCD3FO2NjS7FHAWcsCTXknZMCFnZkmpBxqCvKHo7ojayY9wUAt4PZIDeWFhYXkZAkFP4uxmkCueg2fPnm1vrz1b+/vgRF2cYkjQ5qF5p1JT3cG+bkPskRhvEWe/g/vQsHjS0ZSAs5ADjqzb6Y7b/9oNtTWYkwua9oRYsNFST9eBh98XGLF5wILxYN7FcoNmYGI7NJpzFZdqMTVlepuDdpjUFLEsxCH3+x1Ik+5EXGWHRDsgZUWx6y62kg10hqeS3nONnJ0Dgb076CfMXvgHW9G+AeZgeF7gWSBRSOmmG1a5oZVHRVNsKsS5/Q5aqubnvqaI1b3kIQcZRcmoWSCfv1ocpLehsGfoYOk2W+788Jw1RQib2bzAW6yQPJcsOlUQBHPj8JzMDixoMC+4B8b4/n6oZIXwEQ64gYMNpTTSgSbZRothtIzAp562JJ5lO1hZYSP+i92dfsKeAw5KpMvgoDiRjAqXC1pEfGDbYsuNv520agTS+VbWd2CUlNog3g07oF1FjPrK5Uz5gbaRDTvIuzmgdeUkDvwKfPEu6CDG+w6UNDjgoU9ExWaRDiZzuaabncmwA6uVVdzc03VFChRjKEZyNPuRn6ly4MHAUBuaezVwEIi4i+l8gfXkqt04UTvwGLQDOguzohBw0H+k2EekA1mXUs1LprHYbAw50O1mxzQ7TTFU1UMOYDwpNe/KstGbaAaS6aO8XSqapumkAw64lt54CTehE1KufbTyhvFquO8Aft34cZZnT9Ecc6Af8P010gExRTs3pWf0RkMNnmvJGdtOiXrJ1vS7ZFRfgNMzmp1R1Ux+KuiAVP7JTtT1nJLfc0DjxMnYWnO9tiGVZHr8977+h/ZXu/9y1/0g1gvWIejzpr3oZ6aMut8BT+S2XiqJU6JWrwTKalWaJT2Tz2czbZmMdgAxy7pYgpBD15zQ/yDKxQ2xBNfVar3BsRBsvISrqlNwzXg8fuyHqW9evAL+/foNW/3QLy9vthmK5K4uRZ6ZcBxv+BumYvZ6vUR4PqUxMteCdBOkJgM1tu+ZySJyr1AomGUSemriCTXgqka4XQqEyoZpwK3i3mvQY8E9f/t2d3f39et3sNx9s1flnZ+uAo1GBpY/OVHTAkvjRrxa8BlkCgJEy99MJoOtVs6kQw4G+2JC0EF0+bxiw5yePIkDPvac8eb1f9w1DAJCi73/Tc4BspJrsXX1FP+eIySToXbQbY78vnD4tk3jJ3HgC371bof6wZ78cxFqww17yopeYeEif5ovsMIOYoQEnqSPDT2RA29YfLW7Q/1BxXPAszdo7rzgxsz0rL40ceQo9X0AJ/wcyPkOvK9G8ncsUA87oCeYeX4TsD7wwncgy7L50JHlVpz1haotnicHb3fYIyB50q3XHz3sdv+bYHuq6tVz4oD1BcviXQcwBXe21xK9njsPsyeF///i+7gDgV/Wys/912bss9M5aAIRyOjAdeCFROfXwVwv0f/CyHn/Ujl/Dhjn/l/b9JQiNwRBEARBEARBEARBEARBEARBEARBEARBEARBEARBEARBEARBEARBEARBEARBEARBEARBEARBEAQZzf8AGggIdLYQPVUAAAAASUVORK5CYII=;imageBorder=default;" vertex="1" parent="1">
          <mxGeometry x="600" y="347.56" width="171" height="128.08" as="geometry" />
        </mxCell>
        <mxCell id="YdOP761zWaQ_xF7lf3X8-20" value="" style="endArrow=classic;html=1;rounded=0;entryX=0;entryY=0.5;entryDx=0;entryDy=0;" edge="1" parent="1" source="YdOP761zWaQ_xF7lf3X8-16" target="YdOP761zWaQ_xF7lf3X8-18">
          <mxGeometry width="50" height="50" relative="1" as="geometry">
            <mxPoint x="512" y="642" as="sourcePoint" />
            <mxPoint x="562" y="592" as="targetPoint" />
          </mxGeometry>
        </mxCell>
      </root>
    </mxGraphModel>
  </diagram>
</mxfile>
